<?xml version="1.0" encoding="UTF-8"?>
<svg width="128" height="128" viewBox="0 0 128 128" xmlns="http://www.w3.org/2000/svg">
    <!-- Fond sombre -->
    <rect width="128" height="128" rx="16" fill="#0D1117"/>
    
    <!-- Logo GitHub stylisé -->
    <path d="M64 24C41.92 24 24 41.92 24 64C24 81.76 35.36 96.72 51.28 102.4C53.28 102.8 54 101.6 54 100.48V92.96C42.72 95.84 40.32 87.52 40.32 87.52C38.4 82.24 35.68 80.64 35.68 80.64C32 77.6 35.84 77.76 35.84 77.76C39.84 78.08 41.76 82.72 41.76 82.72C45.44 89.76 51.84 87.68 54.24 86.72C54.72 83.52 56.16 81.28 57.76 80C48.96 78.72 39.68 74.72 39.68 58.88C39.68 53.76 41.28 49.6 44 46.4C43.52 45.28 42.08 40.48 44.56 34.4C44.56 34.4 47.84 33.28 54.24 38.24C57.6 37.28 61.12 36.8 64.64 36.8C68.16 36.8 71.68 37.28 75.04 38.24C81.44 33.28 84.72 34.4 84.72 34.4C87.2 40.48 85.76 45.28 85.28 46.4C88 49.6 89.6 53.76 89.6 58.88C89.6 74.72 80.32 78.72 71.52 80C73.44 81.6 75.2 84.64 75.2 89.28V100.48C75.2 101.6 75.92 102.8 77.92 102.4C93.84 96.72 105.2 81.76 105.2 64C105.2 41.92 87.28 24 65.2 24H64Z" 
          fill="#FFFFFF"/>
</svg> 